<?xml version="1.0" encoding="UTF-8"?>
<svg xmlns="http://www.w3.org/2000/svg" version="1.1" viewBox="0 0 1080 1080">
  <defs>
    <style>
      .cls-1 {
        fill: #ffc200;
      }

      .cls-2 {
        fill: #c90000;
      }
    </style>
  </defs>
  <!-- Generator: Adobe Illustrator 28.6.0, SVG Export Plug-In . SVG Version: 1.2.0 Build 709)  -->
  <g>
    <g id="Layer_1">
      <path class="cls-2" d="M540,48c66.44,0,130.87,13,191.49,38.64,58.58,24.78,111.2,60.26,156.4,105.46s80.68,97.82,105.46,156.4c25.64,60.63,38.64,125.05,38.64,191.49s-13,130.87-38.64,191.49c-24.78,58.58-60.26,111.2-105.46,156.4s-97.82,80.68-156.4,105.46c-60.63,25.64-125.05,38.64-191.49,38.64s-130.87-13-191.49-38.64c-58.58-24.78-111.2-60.26-156.4-105.46s-80.68-97.82-105.46-156.4c-25.64-60.63-38.64-125.05-38.64-191.49s13-130.87,38.64-191.49c24.78-58.58,60.26-111.2,105.46-156.4s97.82-80.68,156.4-105.46c60.63-25.64,125.05-38.64,191.49-38.64M540,0C241.77,0,0,241.77,0,540s241.77,540,540,540,540-241.77,540-540S838.23,0,540,0h0Z"/>
      <path class="cls-1" d="M823.69,526.39c-1.59-2.58-3.88-4.89-6.05-7.07-3.69-3.69-7.99-6.74-10.57-12.34-4.01-9.2-2.52-19.78-3.93-29.55-1.03-8.63-2.39-16.56-1.12-24.54,1.07-8.29,5.31-14.82,7.58-21.98,3.26-8.46-5.17-12.95-12.33-15.63-2.73-1.02-5.64-1.89-8.46-2.81-9.14-2.95-17.03-6.28-26.36-5.71-5.36.33-10.6,2.23-15.89,3.38-7.42,1.79-15.21,1.06-21.74,1.73-5.47.66-11.63,1.44-14.72,2.8-6.09,2.61-8.21,7.52-14.39,11.87-2.04,1.44-4.47,2.7-7.3,3.83-46.93,15.56-138.22,43.96-196.52,62.66-9.18,2.84-15.09,4.59-18.93,2.05-2.44-1.68-3.94-4.81-4.92-7.97-1.22-3.91-2.17-8.44-2.9-12.67-2.19-14.14-5.25-30.74-5.92-45.45-.38-11.24,2.8-16.78,13.62-20.88,40.09-14.4,110.01-37.64,152.92-52.54,8.01-2.73,14.34-4.96,20.34-6.25,11.78-2.76,23.53-.2,35.23-3.24,6.96-1.6,13.77-4.37,20.19-7.64,6.85-3.47,13.26-7.95,20-11.01,8.87-4.36,18.84-6.5,27.94-9.88,7.25-2.78,10.83-8.85,12.79-15.92,1.98-6.37,3.67-13.8,5.78-20.98,3.41-10.84,4.6-22.89.38-33.42-2.32-6.34-5.78-12.46-7.8-19.18-1.6-5.18-2.1-11.48-1.08-17.32,1.39-8.8,5.84-17.91,8.45-24.34,1.01-2.86,2.74-5.64,2.19-8.54-1.98-4.77-18.03.36-27.17,1.79-7.25,1.46-14.81,2.96-22.15,3.18-8.35.1-16.97.27-25.1.44-9.45-.12-17.37-.19-27.54,1.54-11.91,2.1-26.64,5.99-39.2,8.9-8.42,2-16.93,3.93-24.74,6.2-31.21,9.51-5.15,20.15-13.53,28.54-2.9,2.71-13.46,6-19.63,8.36-75.1,27.97-231.65,84.5-286.67,105.69-4.52,2.03-4.97,4.6-4.03,8.91,30.12,140.11,110.21,511.98,123.21,572.09.98,4.14,1.73,6.95,6.44,8.29,3.9,1.52,16.92,1.42,24.19,1.55,14.12.14,31.03-.03,45.5.02,9.07-.24,20.61,0,25.52-1.31,6.36-1.32,8.12-4.07,8.22-9.87-3.48-53.96-17.72-216.47-23.59-297.54-.19-6.86,1.27-10.78,9.65-13.61,22.99-6.61,47.53-10.38,71.98-15.86,12.49-2.5,25.15-5.6,37.79-5.19,10.47.35,20.45,3.02,30.99,5.35,14.24,3.22,29.96,5.93,44.9,5.63,22.21-.09,42.01-7.61,63.63-12.14,9.21-2,18.94-4.27,27.51-8.41,14.03-6.7,26.63-16.26,35.97-28.52,2.92-3.63,5.98-7.57,8.57-11.32,3.4-4.75,5.62-9.99,2.81-14.07l-.04-.06Z"/>
    </g>
  </g>
</svg>