<?xml version="1.0" encoding="UTF-8"?>
<svg xmlns="http://www.w3.org/2000/svg" version="1.1" xmlns:xlink="http://www.w3.org/1999/xlink" viewBox="0 0 728.7 186">
  <defs>
    <style>
      .cls-1 {
        fill: none;
      }

      .cls-2 {
        font-family: Poppins-Regular, Poppins;
        font-size: 107.7px;
      }

      .cls-2, .cls-3 {
        isolation: isolate;
      }

      .cls-4 {
        clip-path: url(#clippath-1);
      }

      .cls-5 {
        fill: #ffc200;
      }

      .cls-6 {
        clip-path: url(#clippath);
      }

      .cls-7 {
        fill: #c90000;
      }
    </style>
    <clipPath id="clippath">
      <rect class="cls-1" width="186" height="186"/>
    </clipPath>
    <clipPath id="clippath-1">
      <rect class="cls-1" width="186" height="186"/>
    </clipPath>
  </defs>
  <g>
    <g id="Layer_1">
      <g id="Layer_1-2" data-name="Layer_1">
        <g class="cls-3">
          <text class="cls-2" transform="translate(221 132.7)"><tspan x="0" y="0">Fast Food</tspan></text>
        </g>
        <g class="cls-6">
          <g class="cls-4">
            <g>
              <path class="cls-7" d="M93,8.3c11.4,0,22.5,2.2,33,6.7,10.1,4.3,19.1,10.4,26.9,18.2,7.8,7.8,13.9,16.9,18.2,26.9,4.4,10.4,6.7,21.5,6.7,33s-2.2,22.5-6.7,33c-4.3,10.1-10.4,19.2-18.2,26.9s-16.9,13.9-26.9,18.2c-10.4,4.4-21.5,6.7-33,6.7s-22.5-2.2-33-6.7c-10.1-4.3-19.1-10.4-26.9-18.2-7.8-7.8-13.9-16.8-18.2-26.9-4.4-10.4-6.7-21.5-6.7-33s2.2-22.5,6.7-33c4.3-10.1,10.4-19.1,18.2-26.9,7.8-7.8,16.9-13.9,26.9-18.2,10.4-4.4,21.5-6.7,33-6.7M93,0C41.6,0,0,41.6,0,93s41.6,93,93,93,93-41.6,93-93S144.4,0,93,0"/>
              <path class="cls-5" d="M141.9,90.7c-.3-.4-.7-.8-1-1.2-.6-.6-1.4-1.2-1.8-2.1-.7-1.6-.4-3.4-.7-5.1-.2-1.5-.4-2.9-.2-4.2.2-1.4.9-2.5,1.3-3.8.6-1.5-.9-2.2-2.1-2.7-.5-.2-1-.3-1.5-.5-1.6-.5-2.9-1.1-4.5-1-.9,0-1.8.4-2.7.6-1.3.3-2.6.2-3.7.3-.9.1-2,.2-2.5.5-1,.5-1.4,1.3-2.5,2-.4.2-.8.5-1.3.7-8.1,2.7-23.8,7.6-33.8,10.8-1.6.5-2.6.8-3.3.4-.4-.3-.7-.8-.9-1.4-.2-.7-.4-1.5-.5-2.2-.4-2.4-.9-5.3-1-7.8,0-1.9.5-2.9,2.4-3.6,6.9-2.5,19-6.5,26.3-9,1.4-.5,2.5-.9,3.5-1.1,2-.5,4,0,6.1-.6,1.2-.3,2.4-.8,3.5-1.3,1.2-.6,2.3-1.4,3.4-1.9,1.5-.8,3.2-1.1,4.8-1.7,1.2-.5,1.9-1.5,2.2-2.7.3-1.1.6-2.4,1-3.6.6-1.9.8-3.9,0-5.8-.4-1.1-1-2.1-1.3-3.3-.3-.9-.4-2-.2-3,.2-1.5,1-3.1,1.5-4.2.2-.5.5-1,.4-1.5-.3-.8-3.1,0-4.7.3-1.2.2-2.5.5-3.8.5-1.4,0-2.9,0-4.3,0-1.6,0-3,0-4.7.3-2,.4-4.6,1-6.8,1.5-1.5.4-2.9.7-4.3,1.1-5.4,1.6-.9,3.5-2.3,4.9-.5.5-2.3,1-3.4,1.4-12.9,4.8-39.9,14.5-49.4,18.2-.8.4-.9.8-.7,1.5,5.2,24.1,19,88.2,21.2,98.5.2.7.3,1.2,1.1,1.4.7.3,2.9.2,4.2.3,2.4,0,5.3,0,7.8,0,1.6,0,3.5,0,4.4-.2,1.1-.2,1.4-.7,1.4-1.7-.6-9.3-3-37.3-4.1-51.2,0-1.2.2-1.9,1.7-2.3,4-1.1,8.2-1.8,12.4-2.7,2.1-.4,4.3-1,6.5-.9,1.8,0,3.5.5,5.3.9,2.5.6,5.2,1,7.7,1,3.8,0,7.2-1.3,11-2.1,1.6-.4,3.3-.7,4.7-1.5,2.4-1.1,4.6-2.8,6.2-4.9.5-.6,1-1.3,1.5-2,.6-.8,1-1.7.5-2.4h0Z"/>
            </g>
          </g>
        </g>
      </g>
    </g>
  </g>
</svg>